<?xml version="1.0" encoding="UTF-8"?>
<svg id="Layer_2" data-name="Layer 2" xmlns="http://www.w3.org/2000/svg" xmlns:xlink="http://www.w3.org/1999/xlink" viewBox="0 0 208.42 184.75">
  <defs>
    <style>
      .cls-1 {
        fill: url(#linear-gradient);
      }
    </style>
    <linearGradient id="linear-gradient" x1="104.21" y1="0" x2="104.21" y2="184.75" gradientUnits="userSpaceOnUse">
      <stop offset="0" stop-color="#2b8fff"/>
      <stop offset="1" stop-color="#005"/>
    </linearGradient>
  </defs>
  <g id="Layer_1-2" data-name="Layer 1">
    <path class="cls-1" d="M193.92,184.68c-.48.05-.98.07-1.49.07h-38.56c-30.04-.82-47.29-55.05-47.57-78.89v-.06c.51-3.5,2.07-7.41,4.68-11.71,1.71-2.81,3.91-5.49,6.6-8.04,2.7-2.56,5.62-4.78,8.76-6.69,3.19-1.9,6.32-3.18,9.37-3.82l-.05-3.45c-4.55-.91-9.01-2.87-13.37-5.87-2.87-2.03-5.5-4.31-7.88-6.85-2.39-2.58-4.37-5.29-5.94-8.11-1.52-2.82-2.54-5.61-3.08-8.39l-3.44.05c-.75,4.38-2.57,8.69-5.46,12.94-2.89,4.2-6.45,7.83-10.66,10.9-4.22,3.06-8.59,5.15-13.11,6.25l.05,3.45c4.5.8,9.17,3,14.03,6.59,4.81,3.54,8.53,7.34,11.15,11.4,2.68,4.06,4.33,7.86,4.92,11.4h0c-.3,23.86-18.29,78.08-48.31,78.9H16c-.51,0-1.01-.02-1.49-.07-11.42-1.02-18.24-13.69-12.34-23.91l1.33-2.29,2.53-4.38,61.54-106.6,3.97-6.88,18.83-32.61c3.08-5.32,8.46-8.01,13.84-8.01s10.77,2.69,13.85,8.01l18.83,32.61,3.97,6.88,61.54,106.6,2.53,4.38,1.32,2.29c5.91,10.22-.91,22.89-12.33,23.91Z"/>
  </g>
</svg>