<svg width="1225" height="1225" viewBox="0 0 1225 1225" fill="none" xmlns="http://www.w3.org/2000/svg">
<path opacity="0.75" d="M393.602 1018.84C408.355 968.34 411.027 907.783 401.619 837.171C392.937 766.897 368.233 693.116 327.509 615.827C286.399 537.475 238.832 478.622 184.809 439.269L206.133 393.603C272.728 407.924 343.604 408.351 418.76 394.885C493.916 381.419 563.927 356.28 628.794 319.468C694 281.931 745.579 236.706 783.53 183.794L829.197 205.118C818.458 245.133 814.074 288.556 816.044 335.388C818.74 382.558 827.549 430.818 842.471 480.166C857.732 528.789 877.778 575.674 902.608 620.82C940.918 688.152 987.109 742.389 1041.18 783.53L1019.86 829.197C975.54 818.216 926.244 815.063 871.969 819.738C818.418 824.752 765.736 835.468 713.923 851.888C662.11 868.308 615.974 889.587 575.516 915.724C513.596 955.678 468.18 997.158 439.269 1040.16L393.602 1018.84ZM421.01 999.854L436.232 1006.96C457.457 970.961 480.857 935.976 506.432 902.006C533.069 867.65 559.44 836.701 585.545 809.159C612.374 781.955 636.858 760.72 658.997 745.453C690.074 743.189 725.354 744.212 764.839 748.523C805.048 753.172 845.498 760.141 886.19 769.43C927.606 779.057 964.769 790.23 997.679 802.949L1004.79 787.726C974.246 769.934 941.629 748.081 906.934 722.168C873.303 695.869 841.798 668.797 812.42 640.952C783.381 612.382 760.672 586.327 744.294 562.787C742.125 535.287 742.689 502.882 745.984 465.572C750.342 427.876 756.804 388.513 765.368 347.483C774.995 306.066 786.797 265.665 800.774 226.28L785.551 219.172C766.743 251.887 744.722 284.866 719.486 318.111C695.313 350.97 669.643 381.363 642.475 409.292C615.307 437.22 589.083 460.291 563.802 478.505C534.513 480.722 499.958 480.037 460.135 476.451C420.651 472.141 380.031 465.534 338.276 456.632C296.86 447.004 258.803 435.855 224.105 423.185L216.997 438.407C249.325 456.152 282.112 477.642 315.357 502.878C348.602 528.114 379.551 554.485 408.204 581.991C436.857 609.498 460.291 635.891 478.505 661.172C481.446 690.799 480.399 725.185 475.364 764.331C471.392 803.091 464.592 843.179 454.964 884.595C445.676 925.286 434.357 963.706 421.01 999.854Z" fill="url(#paint0_linear_272_285)"/>
<defs>
<linearGradient id="paint0_linear_272_285" x1="1711.9" y1="326.599" x2="236.174" y2="1419.77" gradientUnits="userSpaceOnUse">
<stop stop-color="#5B74FF"/>
<stop offset="1" stop-color="#001BB0"/>
</linearGradient>
</defs>
</svg>
